<svg version="1.2" xmlns="http://www.w3.org/2000/svg" viewBox="0 0 147 44" width="147" height="44"><style>.a{fill:#2e3338}.b{fill:#fbcc5c}.c{fill:#35d07f}.d{fill:#5ea33b}</style><path fill-rule="evenodd" class="a" d="m112 6.2l4-1.2v32.5l-4 1.3zm-52.9 20.3c0 4.9 4.1 7.8 7.8 7.8 2.4 0 5.2-1.1 7.1-3v4.5c-1.8 1.3-4.2 2.3-7.4 2.3-6.3 0-11.4-5.2-11.4-11.6-0.1-5.9 4.6-11.3 11.4-11.3 2.9 0 5.7 1 7.8 3l-1.6 3.7c-1.5-1.8-3.7-2.9-6.2-2.9-3.9 0-7.5 3-7.5 7.5zm44.4 0.1v1.5h-17.3c0.8 4.2 4.3 6.2 7.6 6.2 2.4 0 5.2-1.1 7.1-3v4.5c-1.8 1.3-4.2 2.3-7.4 2.3-6.4 0-11.4-5.2-11.4-11.6 0-5.9 3.9-11.3 10.7-11.3 6.5 0 10.7 5.1 10.7 11.4zm31.8 11.5c-6.3 0-11.4-5.1-11.4-11.4 0-6.4 5.1-11.5 11.4-11.5 6.4 0 11.5 5.1 11.5 11.5 0 6.3-5.1 11.4-11.5 11.4zm-49.1-13.5h13.2c-0.3-3.7-3.5-5.6-6.6-5.6-3 0-6.3 1.9-6.6 5.6zm52.1 9.2q1.4-0.6 2.5-1.7 1.1-1.1 1.6-2.5 0.6-1.4 0.6-2.9c0-3.1-1.9-5.9-4.7-7.1-2.9-1.2-6.2-0.6-8.4 1.6-2.2 2.2-2.9 5.5-1.7 8.4 1.2 2.9 4 4.7 7.1 4.7q1.6 0 3-0.5z"/><path fill-rule="evenodd" class="b" d="m17.4 43.9c-9.5 0-17.2-7.7-17.2-17.2 0-9.5 7.7-17.1 17.2-17.1 9.5 0 17.2 7.6 17.2 17.1 0 9.5-7.7 17.2-17.2 17.2zm12.6-17.2c0-6.9-5.6-12.6-12.6-12.6-7 0-12.6 5.7-12.6 12.6 0 7 5.6 12.6 12.6 12.6 7 0 12.6-5.6 12.6-12.6z"/><path fill-rule="evenodd" class="c" d="m26.6 34.7c-9.5 0-17.2-7.6-17.2-17.1 0-9.5 7.7-17.2 17.2-17.2 9.5 0 17.1 7.7 17.1 17.2 0 9.5-7.6 17.1-17.1 17.1zm12.6-17.1c0-7-5.7-12.6-12.6-12.6-7 0-12.6 5.6-12.6 12.6 0 6.9 5.6 12.5 12.6 12.5 6.9 0 12.6-5.6 12.6-12.5z"/><path class="d" d="m27.1 34.7q0.5-0.5 0.8-1.1 0.4-0.6 0.7-1.2 0.4-0.6 0.6-1.3 0.2-0.7 0.4-1.3 0.7-0.2 1.3-0.4 0.7-0.3 1.3-0.6 0.7-0.3 1.2-0.7 0.6-0.4 1.2-0.8-0.1 0.8-0.2 1.5-0.1 0.8-0.2 1.6-0.2 0.8-0.4 1.5-0.3 0.7-0.6 1.5-0.7 0.3-1.4 0.5-0.8 0.3-1.6 0.4-0.7 0.2-1.5 0.3-0.8 0.1-1.6 0.1zm-12.8-20.2q-0.6 0.2-1.3 0.4-0.7 0.3-1.3 0.6-0.6 0.3-1.2 0.7-0.6 0.4-1.1 0.8 0-0.8 0.1-1.6 0.1-0.7 0.3-1.5 0.1-0.8 0.4-1.5 0.2-0.8 0.5-1.5 0.7-0.3 1.5-0.5 0.7-0.3 1.5-0.4 0.8-0.2 1.6-0.3 0.7-0.1 1.5-0.1-0.4 0.5-0.8 1.1-0.4 0.6-0.7 1.2-0.3 0.6-0.6 1.3-0.2 0.6-0.4 1.3z"/></svg>