<?xml version="1.0" encoding="utf-8"?>
<!-- Generator: Adobe Illustrator 26.1.0, SVG Export Plug-In . SVG Version: 6.00 Build 0)  -->
<svg version="1.1" id="Layer_1" xmlns="http://www.w3.org/2000/svg" xmlns:xlink="http://www.w3.org/1999/xlink" x="0px" y="0px"
	 viewBox="0 0 397.6 140.7" style="enable-background:new 0 0 397.6 140.7;" xml:space="preserve">
<style type="text/css">
	.st0{fill:#2FB45C;}
	.st1{fill:#FFF;}
	.st2{fill:#EF4523;}
</style>
<g id="YCkq5k_00000106109057474862998320000005429659234471322553_">
	<g>
		<path class="st0" d="M319.1,69c-3-3.3-5.9-6.5-8.8-9.7c-14.1-15.4-28.2-30.8-42.3-46.2c-0.3-0.3-0.7-0.8-1.1-0.8
			c-2-0.1-3.9-0.1-6.3-0.1c17.4,19,34.7,37.8,51.9,56.7c-10.2,11.2-20.3,22.3-30.5,33.4c0.5,0.1,0.7,0.1,0.9,0.1
			c8.2,0,16.4,0,24.5-0.1c0.6,0,1.4-0.5,1.7-1c4.9-5.3,9.7-10.7,14.7-16c0.6-0.6,1.2-1.3,2-2.1c0.4,0.5,0.6,0.8,1,1.2
			c5.2,5.6,10.3,11.3,15.6,16.9c0.3,0.3,0.7,0.9,1,0.9c2.1,0.1,4.2,0.1,6.7,0.1c-8.4-8.9-16.4-17.6-24.4-26.3
			c-5.9,6.5-11.8,12.8-17.6,19.3c-1.4,1.6-2.8,2.3-5,2.2c-3.2-0.2-6.5-0.1-10.1-0.1C301.8,87.9,310.4,78.5,319.1,69z M369.1,35.7
			c-0.5-0.1-0.8-0.1-1-0.1c-8.1,0-16.1,0-24.1,0.1c-0.6,0-1.4,0.5-1.8,0.9c-5.2,5.6-10.2,11.2-15.3,16.7c-0.4,0.4-0.8,0.8-1.4,1.4
			c-0.4-0.5-0.6-0.9-1-1.2c-5.1-5.6-10.2-11.2-15.3-16.8c-0.4-0.4-0.8-1-1.3-1c-1.9-0.1-3.7-0.1-6-0.1c8,8.8,15.8,17.4,23.6,26
			c0.5-0.5,0.9-0.9,1.2-1.3c5.7-6.3,11.5-12.6,17.2-18.9c0.8-0.8,1.5-1.2,2.7-1.2c3.2,0.1,6.5,0,9.7,0c0.5,0,1,0.1,1.9,0.1
			c-8.9,9.7-17.5,19.2-26.1,28.7c3.8,4.1,7.6,8.2,11.3,12.3c14.1,15.3,28.2,30.6,42.2,45.8c0.3,0.3,0.8,0.6,1.2,0.7
			c1.9,0.1,3.7,0,5.9,0C374.5,108,356.5,88.5,338.5,69C348.9,57.8,358.9,46.9,369.1,35.7z"/>
		<path class="st0" d="M319.1,69c-8.7,9.5-17.2,18.9-26.1,28.6c3.6,0,6.8-0.1,10.1,0.1c2.2,0.1,3.6-0.6,5-2.2
			c5.7-6.5,11.6-12.8,17.6-19.3c8,8.7,16,17.4,24.3,26.3c-2.5,0-4.5,0.1-6.7-0.1c-0.4,0-0.7-0.6-1-0.9c-5.2-5.6-10.4-11.3-15.6-16.9
			c-0.3-0.3-0.6-0.7-1-1.2c-0.8,0.8-1.4,1.5-2,2.1c-4.9,5.4-9.7,10.7-14.7,16c-0.5,0.5-1.2,0.9-1.7,1c-8.2,0.1-16.4,0.1-24.5,0.1
			c-0.2,0-0.4-0.1-0.9-0.1c10.3-11.2,20.3-22.3,30.5-33.4c-17.2-18.8-34.4-37.6-51.9-56.7c2.3,0,4.3-0.1,6.3,0.1
			c0.4,0,0.8,0.5,1.1,0.8c14.1,15.4,28.2,30.8,42.3,46.2C313.2,62.5,316.1,65.7,319.1,69z"/>
		<path class="st0" d="M369.1,35.7c-10.2,11.2-20.2,22.1-30.3,33.3c18,19.6,36,39.1,54.2,58.8c-2.3,0-4.1,0.1-5.9,0
			c-0.4,0-0.8-0.4-1.2-0.7c-14.1-15.3-28.2-30.5-42.2-45.8c-3.7-4.1-7.5-8.1-11.3-12.3c8.7-9.5,17.2-18.9,26.1-28.7
			c-0.9-0.1-1.4-0.1-1.9-0.1c-3.2,0-6.5,0.1-9.7,0c-1.2,0-1.9,0.4-2.7,1.2c-5.7,6.3-11.5,12.6-17.2,18.9c-0.3,0.4-0.7,0.8-1.2,1.3
			c-7.8-8.7-15.6-17.2-23.6-26c2.2,0,4.1-0.1,6,0.1c0.5,0,0.9,0.6,1.3,1c5.1,5.6,10.2,11.2,15.3,16.8c0.3,0.3,0.6,0.8,1,1.2
			c0.6-0.6,1-1,1.4-1.4c5.1-5.6,10.2-11.2,15.3-16.7c0.5-0.5,1.2-0.9,1.8-0.9c8.1-0.1,16.1-0.1,24.1-0.1
			C368.3,35.6,368.6,35.6,369.1,35.7z"/>
	</g>
</g>
<g>
	<g>
		<path class="st1" d="M38.1,82.2c4.2-2.3,8.5-4.4,12.5-6.7c1,1.5,1.9,2.9,3.1,4.2c3.1,3.3,6.9,4.6,11.4,4.2
			c2.5-0.2,4.8-0.6,7.1-1.5c1.7-0.8,3.3-1.9,3.9-4c0.4-1.5,0-2.9-1.4-3.9s-2.9-1.7-4.4-2.3c-4-1.2-8.3-2.1-12.5-3.5
			c-3.3-1-6.1-2.3-8.5-4.8c-3.1-3.1-4-6.7-3.7-11c1.2-10.4,8.8-17.7,18.5-20.1c5.4-1.4,10.8-1.5,15.9,0.4c5.9,2.1,10,6.3,13,11.8
			v0.2c-4,2.5-8.1,4.8-12.1,7.3c-1-2.3-2.3-4-4-5.6c-5.7-5-13.6-2.5-16.5,1.2c-0.4,0.4-0.6,1-1,1.4c-1,1.9-0.6,3.5,1.4,4.8
			c2.1,1.4,4.4,1.9,6.7,2.7c3.5,1,6.9,1.9,10.2,3.1c2.9,1,5.4,2.3,7.5,4.2c3.9,3.5,5,7.9,4,13c-1.2,7.7-5.6,13-12.7,15.9
			c-7.5,3.1-15.2,4-23.1,2.1c-7.1-1.7-11.9-6.5-15.2-12.7C38.1,82.4,38.1,82.4,38.1,82.2z"/>
		<path class="st1" d="M128.1,94.5c0.2-1.2,0.4-2.1,0.6-3.5c-0.4,0.2-0.6,0.4-0.8,0.6c-3.3,2.1-6.7,4-10.8,4.4
			c-11,1.2-20.9-5.2-22.3-16.9c-0.8-6.9,1.4-13.2,5.6-18.7c4.6-6.1,10.8-10,18.5-11.6c5.9-1.2,11.4,0.2,16.1,4.2
			c0.2,0.2,0.2,0.2,0.4,0.4c0.2-1.2,0.4-2.1,0.6-3.3c4.4,0,8.7,0,13,0c-0.2,1.4-0.4,2.5-0.6,3.9c-2.1,11.4-4,22.7-6.1,34
			c-0.4,1.9-0.8,3.9-1.2,5.7c0,0.2-0.4,0.6-0.6,0.6C136.5,94.5,132.5,94.5,128.1,94.5z M132.7,71.3c0-6.5-4-10.8-9.6-10.8
			c-6.9-0.2-13.6,5.4-14.8,12.3c-0.8,5.4,1.9,10,6.7,11.4c3.5,1,6.5,0.4,9.6-1.4C129.6,79.9,132.3,75.9,132.7,71.3z"/>
		<path class="st1" d="M207,50.1c-0.4,2.1-0.8,4-1.2,5.9c-1.2,6.3-2.3,12.7-3.5,19c-0.8,4.2,1.5,7.9,5.2,9c2.9,0.8,5.4,0,7.7-1.7
			c3.3-2.3,4.6-5.4,5.2-9.2c1.2-7.5,2.7-15,4-22.3c0-0.6,0.2-0.8,0.8-0.8c4,0,7.9,0,11.9,0c0.2,0,0.2,0,0.6,0
			c-0.4,2.1-0.8,4-1.2,6.1c-2.1,11.9-4.2,23.8-6.3,35.8c-0.4,2.3-0.4,2.3-2.7,2.3c-3.3,0-6.3,0-9.6,0c-0.4,0-0.6,0-1.2,0
			c0.2-1.5,0.4-2.9,0.8-4.4c-0.6,0.6-1.2,1-1.7,1.4c-2.9,2.3-5.9,4-9.6,4.6c-9.4,1.2-16.1-4.4-17.3-12.7c-0.4-2.9,0-5.6,0.6-8.3
			c1.5-8.1,2.9-16.1,4.4-24.2c0-0.4,0-0.8,0.6-0.8C198.6,50.1,202.7,50.1,207,50.1z"/>
		<path class="st1" d="M268,94.5c0.2-1.4,0.4-2.7,0.8-4.2c-1.2,0.8-2.1,1.7-3.1,2.3c-4.2,3.1-8.8,4.4-14,3.5
			c-6.1-1.2-10.6-5.9-11.6-12.1c-0.4-2.7,0-5.6,0.4-8.3c1.5-8.1,2.9-16.1,4.4-24.2c0-0.4,0.2-0.8,0.2-1.2c4.2,0,8.7,0,13,0
			c-0.2,1.4-0.4,2.5-0.6,3.9c-1.4,7.1-2.5,14.2-3.9,21.3c-0.6,3.1,0.4,5.7,2.9,7.5c2.5,1.9,5.4,1.7,8.3,0.4c4-1.9,6.1-5.2,6.9-9.4
			c1.4-7.7,2.7-15.4,4-22.9c0-0.2,0.2-0.6,0.2-0.8c4.2,0,8.7,0,13,0c-0.2,1.2-0.4,2.5-0.6,3.7c-2.3,13.2-4.8,26.7-7.1,40
			c0,0.4-0.2,0.8-0.6,0.8c-4,0-8.3,0-12.3,0C268.4,94.5,268.2,94.5,268,94.5z"/>
		<path class="st1" d="M169.8,94.5c-4.4,0-8.7,0-13,0c1.9-11,3.9-21.9,5.9-32.9c-3.1,0-5.9,0-9,0c0.4-1.7,0.6-3.5,1-5.2
			c0.4-1.9,0.8-3.7,1-5.6c0.2-0.6,0.4-0.8,1-0.8c2.5,0,4.8,0,7.3,0c0.4,0,0.6,0,1,0c0.4-1.5,0.6-3.1,1-4.8c1.5-8.1,9.2-14,17.7-13.6
			c3.9,0.2,7.7,0.6,11.4,1.5c0.2,0,0.6,0.2,0.8,0.2c-1.5,4-3.1,7.9-4.6,11.8c-1.4-0.4-2.9-1-4.2-1.4c-1-0.2-1.9-0.2-3.1-0.2
			c-2.9,0.4-5,2.3-5.6,5c0,0.6-0.2,1-0.2,1.5c3.7,0,7.1,0,10.8,0c-0.2,0.4-0.2,0.6-0.4,1c-1.4,3.3-2.7,6.5-4,9.8
			c-0.2,0.6-0.6,0.8-1.2,0.8c-2.1,0-4.4,0-6.5,0c-0.6,0-0.8,0-1,0.8c-1.9,10.4-3.7,20.9-5.6,31.3C170,93.9,170,94.1,169.8,94.5z"/>
		<path class="st0" d="M16.4,40.2c0.4,1.7,0.6,3.5,1,5c1.7,8.3,4.4,16.3,7.9,24.2c7.1,16.3,16.7,31.1,27.9,44.9
			c3.1,3.9,6.3,7.3,9.4,11.2c0.2,0.2,0.4,0.4,0.8,0.8c1.5-1.9,3.3-3.7,4.8-5.4c1.4-1.7,2.9-3.3,4.2-5c0.4-0.4,0.8-0.8,1.2-1
			c7.9-5.7,15.2-11.9,21.9-19h0.2c-9.2,15.4-20.1,29.4-32.1,42.9c-1.5-1.7-3.1-3.5-4.6-5.2C48.2,120.9,38.5,108,30.2,94
			c-8.1-13.6-14.6-27.9-18.9-43.1c-0.4-1.7-1-3.5-1.4-5.2c0-0.2,0-0.8,0.2-0.8C12.2,43.2,14.3,41.6,16.4,40.2z"/>
		<path class="st0" d="M116.1,47.1c-0.8-7.5-2.1-15-3.9-22.3c-0.6-2.5-1.4-5-2.1-7.3c0-0.2-0.4-0.4-0.8-0.6c-0.2,0-0.4,0-0.8,0
			c-20,0-40.2,0-60.2,0c-0.4,0-0.6,0-1.2,0c0.4-0.4,0.6-0.4,0.8-0.6c2.9-2.1,5.7-4.4,8.8-6.5c0.4-0.2,1-0.4,1.4-0.4
			c19.8,0,39.6,0,59.4,0c0.6,0,0.8,0.2,1,0.8c0.8,4.4,1,8.8,1,13.2c-0.2,7.9-1.4,15.6-3.3,23.1C116.3,46.9,116.3,47.1,116.1,47.1z"
			/>
		<path class="st2" d="M47.6,9.5c-12.8,9.6-26,19.2-39,29c-0.2-1.4-0.4-2.7-0.6-4c-1.2-7.5-1.5-15-0.4-22.7C8,9.3,8,9.3,10.5,9.3
			c12.1,0,24,0,36.2,0c0.2,0,0.6,0,0.8,0C47.4,9.5,47.6,9.5,47.6,9.5z"/>
	</g>
</g>
</svg>
